<mxfile host="app.diagrams.net" modified="2023-11-15T22:24:11.723Z" agent="Mozilla/5.0 (Windows NT 10.0; Win64; x64) AppleWebKit/537.36 (KHTML, like Gecko) Chrome/119.0.0.0 Safari/537.36" etag="KSXFTZZQ1Y1UNfPaLVrK" version="21.7.4" type="device">
  <diagram id="C5RBs43oDa-KdzZeNtuy" name="Page-1">
    <mxGraphModel dx="794" dy="464" grid="1" gridSize="10" guides="1" tooltips="1" connect="1" arrows="1" fold="1" page="1" pageScale="1" pageWidth="827" pageHeight="1169" math="0" shadow="0">
      <root>
        <mxCell id="WIyWlLk6GJQsqaUBKTNV-0" />
        <mxCell id="WIyWlLk6GJQsqaUBKTNV-1" parent="WIyWlLk6GJQsqaUBKTNV-0" />
        <mxCell id="WIyWlLk6GJQsqaUBKTNV-2" value="" style="rounded=0;html=1;jettySize=auto;orthogonalLoop=1;fontSize=11;endArrow=block;endFill=0;endSize=8;strokeWidth=1;shadow=0;labelBackgroundColor=none;edgeStyle=orthogonalEdgeStyle;" parent="WIyWlLk6GJQsqaUBKTNV-1" source="WIyWlLk6GJQsqaUBKTNV-3" edge="1">
          <mxGeometry relative="1" as="geometry">
            <mxPoint x="220" y="170" as="targetPoint" />
          </mxGeometry>
        </mxCell>
        <mxCell id="WIyWlLk6GJQsqaUBKTNV-3" value="Start" style="rounded=1;whiteSpace=wrap;html=1;fontSize=12;glass=0;strokeWidth=1;shadow=0;" parent="WIyWlLk6GJQsqaUBKTNV-1" vertex="1">
          <mxGeometry x="160" y="80" width="120" height="40" as="geometry" />
        </mxCell>
        <mxCell id="_YHEuX3XCHLoAj_idzYY-0" value="Get credentials from the credential manager" style="rounded=0;whiteSpace=wrap;html=1;" parent="WIyWlLk6GJQsqaUBKTNV-1" vertex="1">
          <mxGeometry x="157" y="168" width="120" height="60" as="geometry" />
        </mxCell>
        <mxCell id="_YHEuX3XCHLoAj_idzYY-1" value="" style="endArrow=none;dashed=1;html=1;rounded=0;" parent="WIyWlLk6GJQsqaUBKTNV-1" edge="1">
          <mxGeometry width="50" height="50" relative="1" as="geometry">
            <mxPoint x="160" y="234" as="sourcePoint" />
            <mxPoint x="280" y="234" as="targetPoint" />
            <Array as="points">
              <mxPoint x="230" y="234" />
              <mxPoint x="280" y="234" />
            </Array>
          </mxGeometry>
        </mxCell>
        <mxCell id="_YHEuX3XCHLoAj_idzYY-2" value="" style="endArrow=none;dashed=1;html=1;rounded=0;" parent="WIyWlLk6GJQsqaUBKTNV-1" edge="1">
          <mxGeometry width="50" height="50" relative="1" as="geometry">
            <mxPoint x="170" y="251" as="sourcePoint" />
            <mxPoint x="280" y="251" as="targetPoint" />
            <Array as="points">
              <mxPoint x="160" y="251" />
              <mxPoint x="180" y="251" />
              <mxPoint x="240" y="251" />
              <mxPoint x="280" y="251" />
            </Array>
          </mxGeometry>
        </mxCell>
        <mxCell id="_YHEuX3XCHLoAj_idzYY-4" value="" style="endArrow=none;dashed=1;html=1;dashPattern=1 3;strokeWidth=2;rounded=0;" parent="WIyWlLk6GJQsqaUBKTNV-1" edge="1">
          <mxGeometry width="50" height="50" relative="1" as="geometry">
            <mxPoint x="280" y="252" as="sourcePoint" />
            <mxPoint x="280" y="232" as="targetPoint" />
          </mxGeometry>
        </mxCell>
        <mxCell id="_YHEuX3XCHLoAj_idzYY-5" value="" style="endArrow=none;dashed=1;html=1;dashPattern=1 3;strokeWidth=2;rounded=0;" parent="WIyWlLk6GJQsqaUBKTNV-1" edge="1">
          <mxGeometry width="50" height="50" relative="1" as="geometry">
            <mxPoint x="160" y="252" as="sourcePoint" />
            <mxPoint x="160" y="232" as="targetPoint" />
          </mxGeometry>
        </mxCell>
        <mxCell id="_YHEuX3XCHLoAj_idzYY-26" value="Logged message&amp;nbsp; displays the username and password" style="rounded=0;whiteSpace=wrap;html=1;" parent="WIyWlLk6GJQsqaUBKTNV-1" vertex="1">
          <mxGeometry x="161" y="423" width="119" height="60" as="geometry" />
        </mxCell>
        <mxCell id="_YHEuX3XCHLoAj_idzYY-27" value="" style="endArrow=none;dashed=1;html=1;rounded=0;" parent="WIyWlLk6GJQsqaUBKTNV-1" edge="1">
          <mxGeometry width="50" height="50" relative="1" as="geometry">
            <mxPoint x="160" y="487" as="sourcePoint" />
            <mxPoint x="280" y="487" as="targetPoint" />
            <Array as="points">
              <mxPoint x="230" y="487" />
              <mxPoint x="280" y="487" />
            </Array>
          </mxGeometry>
        </mxCell>
        <mxCell id="_YHEuX3XCHLoAj_idzYY-28" value="" style="endArrow=none;dashed=1;html=1;rounded=0;" parent="WIyWlLk6GJQsqaUBKTNV-1" edge="1">
          <mxGeometry width="50" height="50" relative="1" as="geometry">
            <mxPoint x="170" y="504" as="sourcePoint" />
            <mxPoint x="280" y="504" as="targetPoint" />
            <Array as="points">
              <mxPoint x="160" y="504" />
              <mxPoint x="180" y="504" />
              <mxPoint x="240" y="504" />
              <mxPoint x="280" y="504" />
            </Array>
          </mxGeometry>
        </mxCell>
        <mxCell id="_YHEuX3XCHLoAj_idzYY-29" value="" style="endArrow=none;dashed=1;html=1;dashPattern=1 3;strokeWidth=2;rounded=0;" parent="WIyWlLk6GJQsqaUBKTNV-1" edge="1">
          <mxGeometry width="50" height="50" relative="1" as="geometry">
            <mxPoint x="280" y="505" as="sourcePoint" />
            <mxPoint x="280" y="485" as="targetPoint" />
          </mxGeometry>
        </mxCell>
        <mxCell id="_YHEuX3XCHLoAj_idzYY-30" value="" style="endArrow=none;dashed=1;html=1;dashPattern=1 3;strokeWidth=2;rounded=0;" parent="WIyWlLk6GJQsqaUBKTNV-1" edge="1">
          <mxGeometry width="50" height="50" relative="1" as="geometry">
            <mxPoint x="160" y="505" as="sourcePoint" />
            <mxPoint x="160" y="485" as="targetPoint" />
          </mxGeometry>
        </mxCell>
        <mxCell id="_YHEuX3XCHLoAj_idzYY-31" value="Internal App" style="text;html=1;align=center;verticalAlign=middle;resizable=0;points=[];autosize=1;strokeColor=none;fillColor=none;" parent="WIyWlLk6GJQsqaUBKTNV-1" vertex="1">
          <mxGeometry x="156" y="228" width="90" height="30" as="geometry" />
        </mxCell>
        <mxCell id="_YHEuX3XCHLoAj_idzYY-32" value="Use the invoke workflow activity to call credentials from the get credentials workflow to the login workflow" style="rounded=0;whiteSpace=wrap;html=1;" parent="WIyWlLk6GJQsqaUBKTNV-1" vertex="1">
          <mxGeometry x="161" y="535" width="129" height="78" as="geometry" />
        </mxCell>
        <mxCell id="_YHEuX3XCHLoAj_idzYY-33" value="" style="endArrow=none;dashed=1;html=1;rounded=0;" parent="WIyWlLk6GJQsqaUBKTNV-1" edge="1">
          <mxGeometry width="50" height="50" relative="1" as="geometry">
            <mxPoint x="161" y="614" as="sourcePoint" />
            <mxPoint x="281" y="614" as="targetPoint" />
            <Array as="points">
              <mxPoint x="231" y="614" />
              <mxPoint x="281" y="614" />
            </Array>
          </mxGeometry>
        </mxCell>
        <mxCell id="_YHEuX3XCHLoAj_idzYY-34" value="" style="endArrow=none;dashed=1;html=1;rounded=0;" parent="WIyWlLk6GJQsqaUBKTNV-1" edge="1">
          <mxGeometry width="50" height="50" relative="1" as="geometry">
            <mxPoint x="171" y="631" as="sourcePoint" />
            <mxPoint x="281" y="631" as="targetPoint" />
            <Array as="points">
              <mxPoint x="161" y="631" />
              <mxPoint x="181" y="631" />
              <mxPoint x="241" y="631" />
              <mxPoint x="281" y="631" />
            </Array>
          </mxGeometry>
        </mxCell>
        <mxCell id="_YHEuX3XCHLoAj_idzYY-35" value="" style="endArrow=none;dashed=1;html=1;dashPattern=1 3;strokeWidth=2;rounded=0;" parent="WIyWlLk6GJQsqaUBKTNV-1" edge="1">
          <mxGeometry width="50" height="50" relative="1" as="geometry">
            <mxPoint x="281" y="632" as="sourcePoint" />
            <mxPoint x="281" y="612" as="targetPoint" />
          </mxGeometry>
        </mxCell>
        <mxCell id="_YHEuX3XCHLoAj_idzYY-36" value="" style="endArrow=none;dashed=1;html=1;dashPattern=1 3;strokeWidth=2;rounded=0;" parent="WIyWlLk6GJQsqaUBKTNV-1" edge="1">
          <mxGeometry width="50" height="50" relative="1" as="geometry">
            <mxPoint x="161" y="632" as="sourcePoint" />
            <mxPoint x="161" y="612" as="targetPoint" />
          </mxGeometry>
        </mxCell>
        <mxCell id="_YHEuX3XCHLoAj_idzYY-37" value="Use applicaton/browser activity to show the URL to be logged into" style="rounded=0;whiteSpace=wrap;html=1;" parent="WIyWlLk6GJQsqaUBKTNV-1" vertex="1">
          <mxGeometry x="159" y="663" width="120" height="60" as="geometry" />
        </mxCell>
        <mxCell id="_YHEuX3XCHLoAj_idzYY-38" value="" style="endArrow=none;dashed=1;html=1;rounded=0;" parent="WIyWlLk6GJQsqaUBKTNV-1" edge="1">
          <mxGeometry width="50" height="50" relative="1" as="geometry">
            <mxPoint x="160" y="727" as="sourcePoint" />
            <mxPoint x="280" y="727" as="targetPoint" />
            <Array as="points">
              <mxPoint x="230" y="727" />
              <mxPoint x="280" y="727" />
            </Array>
          </mxGeometry>
        </mxCell>
        <mxCell id="_YHEuX3XCHLoAj_idzYY-39" value="" style="endArrow=none;dashed=1;html=1;rounded=0;" parent="WIyWlLk6GJQsqaUBKTNV-1" edge="1">
          <mxGeometry width="50" height="50" relative="1" as="geometry">
            <mxPoint x="170" y="744" as="sourcePoint" />
            <mxPoint x="280" y="744" as="targetPoint" />
            <Array as="points">
              <mxPoint x="160" y="744" />
              <mxPoint x="180" y="744" />
              <mxPoint x="240" y="744" />
              <mxPoint x="280" y="744" />
            </Array>
          </mxGeometry>
        </mxCell>
        <mxCell id="_YHEuX3XCHLoAj_idzYY-40" value="" style="endArrow=none;dashed=1;html=1;dashPattern=1 3;strokeWidth=2;rounded=0;" parent="WIyWlLk6GJQsqaUBKTNV-1" edge="1">
          <mxGeometry width="50" height="50" relative="1" as="geometry">
            <mxPoint x="280" y="745" as="sourcePoint" />
            <mxPoint x="280" y="725" as="targetPoint" />
          </mxGeometry>
        </mxCell>
        <mxCell id="_YHEuX3XCHLoAj_idzYY-41" value="" style="endArrow=none;dashed=1;html=1;dashPattern=1 3;strokeWidth=2;rounded=0;" parent="WIyWlLk6GJQsqaUBKTNV-1" edge="1">
          <mxGeometry width="50" height="50" relative="1" as="geometry">
            <mxPoint x="160" y="745" as="sourcePoint" />
            <mxPoint x="160" y="725" as="targetPoint" />
          </mxGeometry>
        </mxCell>
        <mxCell id="_YHEuX3XCHLoAj_idzYY-47" value="Internal App" style="text;whiteSpace=wrap;html=1;" parent="WIyWlLk6GJQsqaUBKTNV-1" vertex="1">
          <mxGeometry x="198" y="483" width="80" height="40" as="geometry" />
        </mxCell>
        <mxCell id="_YHEuX3XCHLoAj_idzYY-48" value="Internal App" style="text;whiteSpace=wrap;html=1;" parent="WIyWlLk6GJQsqaUBKTNV-1" vertex="1">
          <mxGeometry x="197" y="609" width="80" height="40" as="geometry" />
        </mxCell>
        <mxCell id="_YHEuX3XCHLoAj_idzYY-49" value="Internal App" style="text;whiteSpace=wrap;html=1;" parent="WIyWlLk6GJQsqaUBKTNV-1" vertex="1">
          <mxGeometry x="199" y="723" width="80" height="40" as="geometry" />
        </mxCell>
        <mxCell id="_YHEuX3XCHLoAj_idzYY-72" value="" style="rounded=0;html=1;jettySize=auto;orthogonalLoop=1;fontSize=11;endArrow=block;endFill=0;endSize=8;strokeWidth=1;shadow=0;labelBackgroundColor=none;edgeStyle=orthogonalEdgeStyle;" parent="WIyWlLk6GJQsqaUBKTNV-1" edge="1">
          <mxGeometry relative="1" as="geometry">
            <mxPoint x="222" y="250" as="sourcePoint" />
            <mxPoint x="222" y="292" as="targetPoint" />
          </mxGeometry>
        </mxCell>
        <mxCell id="_YHEuX3XCHLoAj_idzYY-79" value="" style="rounded=0;html=1;jettySize=auto;orthogonalLoop=1;fontSize=11;endArrow=block;endFill=0;endSize=8;strokeWidth=1;shadow=0;labelBackgroundColor=none;edgeStyle=orthogonalEdgeStyle;" parent="WIyWlLk6GJQsqaUBKTNV-1" edge="1">
          <mxGeometry relative="1" as="geometry">
            <mxPoint x="222" y="756" as="sourcePoint" />
            <mxPoint x="222" y="787" as="targetPoint" />
            <Array as="points">
              <mxPoint x="222" y="746" />
              <mxPoint x="222" y="746" />
            </Array>
          </mxGeometry>
        </mxCell>
        <mxCell id="zbdN66aRmhUv04qdOEFZ-3" value="Use type into activity to populate the username and password" style="rounded=0;whiteSpace=wrap;html=1;" parent="WIyWlLk6GJQsqaUBKTNV-1" vertex="1">
          <mxGeometry x="159" y="788" width="120" height="60" as="geometry" />
        </mxCell>
        <mxCell id="zbdN66aRmhUv04qdOEFZ-4" value="" style="endArrow=none;dashed=1;html=1;rounded=0;" parent="WIyWlLk6GJQsqaUBKTNV-1" edge="1">
          <mxGeometry width="50" height="50" relative="1" as="geometry">
            <mxPoint x="159" y="852" as="sourcePoint" />
            <mxPoint x="279" y="852" as="targetPoint" />
            <Array as="points">
              <mxPoint x="229" y="852" />
              <mxPoint x="279" y="852" />
            </Array>
          </mxGeometry>
        </mxCell>
        <mxCell id="zbdN66aRmhUv04qdOEFZ-5" value="" style="endArrow=none;dashed=1;html=1;rounded=0;" parent="WIyWlLk6GJQsqaUBKTNV-1" edge="1">
          <mxGeometry width="50" height="50" relative="1" as="geometry">
            <mxPoint x="169" y="869" as="sourcePoint" />
            <mxPoint x="279" y="869" as="targetPoint" />
            <Array as="points">
              <mxPoint x="159" y="869" />
              <mxPoint x="179" y="869" />
              <mxPoint x="239" y="869" />
              <mxPoint x="279" y="869" />
            </Array>
          </mxGeometry>
        </mxCell>
        <mxCell id="zbdN66aRmhUv04qdOEFZ-6" value="" style="endArrow=none;dashed=1;html=1;dashPattern=1 3;strokeWidth=2;rounded=0;" parent="WIyWlLk6GJQsqaUBKTNV-1" edge="1">
          <mxGeometry width="50" height="50" relative="1" as="geometry">
            <mxPoint x="279" y="870" as="sourcePoint" />
            <mxPoint x="279" y="850" as="targetPoint" />
          </mxGeometry>
        </mxCell>
        <mxCell id="zbdN66aRmhUv04qdOEFZ-7" value="" style="endArrow=none;dashed=1;html=1;dashPattern=1 3;strokeWidth=2;rounded=0;" parent="WIyWlLk6GJQsqaUBKTNV-1" edge="1">
          <mxGeometry width="50" height="50" relative="1" as="geometry">
            <mxPoint x="159" y="870" as="sourcePoint" />
            <mxPoint x="159" y="850" as="targetPoint" />
          </mxGeometry>
        </mxCell>
        <mxCell id="zbdN66aRmhUv04qdOEFZ-14" value="Use the click activity to click the login tab&amp;nbsp;" style="rounded=0;whiteSpace=wrap;html=1;" parent="WIyWlLk6GJQsqaUBKTNV-1" vertex="1">
          <mxGeometry x="160" y="910" width="120" height="60" as="geometry" />
        </mxCell>
        <mxCell id="zbdN66aRmhUv04qdOEFZ-15" value="" style="endArrow=none;dashed=1;html=1;rounded=0;" parent="WIyWlLk6GJQsqaUBKTNV-1" edge="1">
          <mxGeometry width="50" height="50" relative="1" as="geometry">
            <mxPoint x="160" y="974" as="sourcePoint" />
            <mxPoint x="280" y="974" as="targetPoint" />
            <Array as="points">
              <mxPoint x="230" y="974" />
              <mxPoint x="280" y="974" />
            </Array>
          </mxGeometry>
        </mxCell>
        <mxCell id="zbdN66aRmhUv04qdOEFZ-16" value="" style="endArrow=none;dashed=1;html=1;rounded=0;" parent="WIyWlLk6GJQsqaUBKTNV-1" edge="1">
          <mxGeometry width="50" height="50" relative="1" as="geometry">
            <mxPoint x="170" y="991" as="sourcePoint" />
            <mxPoint x="280" y="991" as="targetPoint" />
            <Array as="points">
              <mxPoint x="160" y="991" />
              <mxPoint x="180" y="991" />
              <mxPoint x="240" y="991" />
              <mxPoint x="280" y="991" />
            </Array>
          </mxGeometry>
        </mxCell>
        <mxCell id="zbdN66aRmhUv04qdOEFZ-17" value="" style="endArrow=none;dashed=1;html=1;dashPattern=1 3;strokeWidth=2;rounded=0;" parent="WIyWlLk6GJQsqaUBKTNV-1" edge="1">
          <mxGeometry width="50" height="50" relative="1" as="geometry">
            <mxPoint x="280" y="992" as="sourcePoint" />
            <mxPoint x="280" y="972" as="targetPoint" />
          </mxGeometry>
        </mxCell>
        <mxCell id="zbdN66aRmhUv04qdOEFZ-18" value="" style="endArrow=none;dashed=1;html=1;dashPattern=1 3;strokeWidth=2;rounded=0;" parent="WIyWlLk6GJQsqaUBKTNV-1" edge="1">
          <mxGeometry width="50" height="50" relative="1" as="geometry">
            <mxPoint x="160" y="992" as="sourcePoint" />
            <mxPoint x="160" y="972" as="targetPoint" />
          </mxGeometry>
        </mxCell>
        <mxCell id="zbdN66aRmhUv04qdOEFZ-19" value="" style="rounded=0;html=1;jettySize=auto;orthogonalLoop=1;fontSize=11;endArrow=block;endFill=0;endSize=8;strokeWidth=1;shadow=0;labelBackgroundColor=none;edgeStyle=orthogonalEdgeStyle;" parent="WIyWlLk6GJQsqaUBKTNV-1" edge="1">
          <mxGeometry relative="1" as="geometry">
            <mxPoint x="224" y="878" as="sourcePoint" />
            <mxPoint x="224" y="909" as="targetPoint" />
            <Array as="points">
              <mxPoint x="224" y="868" />
              <mxPoint x="224" y="868" />
            </Array>
          </mxGeometry>
        </mxCell>
        <mxCell id="zbdN66aRmhUv04qdOEFZ-20" value="" style="rounded=0;html=1;jettySize=auto;orthogonalLoop=1;fontSize=11;endArrow=block;endFill=0;endSize=8;strokeWidth=1;shadow=0;labelBackgroundColor=none;edgeStyle=orthogonalEdgeStyle;" parent="WIyWlLk6GJQsqaUBKTNV-1" edge="1">
          <mxGeometry relative="1" as="geometry">
            <mxPoint x="225" y="1000" as="sourcePoint" />
            <mxPoint x="225" y="1031" as="targetPoint" />
            <Array as="points">
              <mxPoint x="225" y="990" />
              <mxPoint x="225" y="990" />
            </Array>
          </mxGeometry>
        </mxCell>
        <mxCell id="zbdN66aRmhUv04qdOEFZ-51" value="Internal App" style="text;whiteSpace=wrap;html=1;" parent="WIyWlLk6GJQsqaUBKTNV-1" vertex="1">
          <mxGeometry x="190" y="849" width="100" height="40" as="geometry" />
        </mxCell>
        <mxCell id="zbdN66aRmhUv04qdOEFZ-52" value="Internal App" style="text;whiteSpace=wrap;html=1;" parent="WIyWlLk6GJQsqaUBKTNV-1" vertex="1">
          <mxGeometry x="194" y="969" width="100" height="40" as="geometry" />
        </mxCell>
        <mxCell id="CRPaWPTZXYbFd5-qlrQ4-0" value="&lt;font style=&quot;border-color: var(--border-color); font-size: 11px;&quot;&gt;Were the&lt;br style=&quot;border-color: var(--border-color);&quot;&gt;&lt;/font&gt;&lt;font style=&quot;border-color: var(--border-color); font-size: 11px;&quot;&gt;&amp;nbsp;credentials found?&lt;/font&gt;" style="rhombus;whiteSpace=wrap;html=1;" vertex="1" parent="WIyWlLk6GJQsqaUBKTNV-1">
          <mxGeometry x="162" y="290" width="120" height="100" as="geometry" />
        </mxCell>
        <mxCell id="CRPaWPTZXYbFd5-qlrQ4-1" value="" style="endArrow=classic;html=1;rounded=0;exitX=1;exitY=0.5;exitDx=0;exitDy=0;" edge="1" parent="WIyWlLk6GJQsqaUBKTNV-1" source="CRPaWPTZXYbFd5-qlrQ4-0">
          <mxGeometry width="50" height="50" relative="1" as="geometry">
            <mxPoint x="360" y="390" as="sourcePoint" />
            <mxPoint x="410" y="340" as="targetPoint" />
          </mxGeometry>
        </mxCell>
        <mxCell id="CRPaWPTZXYbFd5-qlrQ4-2" value="" style="endArrow=classic;html=1;rounded=0;exitX=0.5;exitY=1;exitDx=0;exitDy=0;" edge="1" parent="WIyWlLk6GJQsqaUBKTNV-1" source="CRPaWPTZXYbFd5-qlrQ4-0">
          <mxGeometry width="50" height="50" relative="1" as="geometry">
            <mxPoint x="360" y="390" as="sourcePoint" />
            <mxPoint x="222" y="420" as="targetPoint" />
          </mxGeometry>
        </mxCell>
        <mxCell id="CRPaWPTZXYbFd5-qlrQ4-43" value="Yes" style="edgeLabel;html=1;align=center;verticalAlign=middle;resizable=0;points=[];" vertex="1" connectable="0" parent="CRPaWPTZXYbFd5-qlrQ4-2">
          <mxGeometry x="-0.3556" relative="1" as="geometry">
            <mxPoint x="10" as="offset" />
          </mxGeometry>
        </mxCell>
        <mxCell id="CRPaWPTZXYbFd5-qlrQ4-3" value="log the message &quot;credentials were not found&quot;" style="rounded=0;whiteSpace=wrap;html=1;" vertex="1" parent="WIyWlLk6GJQsqaUBKTNV-1">
          <mxGeometry x="411" y="310" width="120" height="60" as="geometry" />
        </mxCell>
        <mxCell id="CRPaWPTZXYbFd5-qlrQ4-4" value="" style="endArrow=none;dashed=1;html=1;rounded=0;" edge="1" parent="WIyWlLk6GJQsqaUBKTNV-1">
          <mxGeometry width="50" height="50" relative="1" as="geometry">
            <mxPoint x="411" y="374" as="sourcePoint" />
            <mxPoint x="531" y="374" as="targetPoint" />
            <Array as="points">
              <mxPoint x="481" y="374" />
              <mxPoint x="531" y="374" />
            </Array>
          </mxGeometry>
        </mxCell>
        <mxCell id="CRPaWPTZXYbFd5-qlrQ4-5" value="" style="endArrow=none;dashed=1;html=1;rounded=0;" edge="1" parent="WIyWlLk6GJQsqaUBKTNV-1">
          <mxGeometry width="50" height="50" relative="1" as="geometry">
            <mxPoint x="421" y="391" as="sourcePoint" />
            <mxPoint x="531" y="391" as="targetPoint" />
            <Array as="points">
              <mxPoint x="411" y="391" />
              <mxPoint x="431" y="391" />
              <mxPoint x="491" y="391" />
              <mxPoint x="531" y="391" />
            </Array>
          </mxGeometry>
        </mxCell>
        <mxCell id="CRPaWPTZXYbFd5-qlrQ4-6" value="" style="endArrow=none;dashed=1;html=1;dashPattern=1 3;strokeWidth=2;rounded=0;" edge="1" parent="WIyWlLk6GJQsqaUBKTNV-1">
          <mxGeometry width="50" height="50" relative="1" as="geometry">
            <mxPoint x="531" y="392" as="sourcePoint" />
            <mxPoint x="531" y="372" as="targetPoint" />
          </mxGeometry>
        </mxCell>
        <mxCell id="CRPaWPTZXYbFd5-qlrQ4-7" value="" style="endArrow=none;dashed=1;html=1;dashPattern=1 3;strokeWidth=2;rounded=0;" edge="1" parent="WIyWlLk6GJQsqaUBKTNV-1">
          <mxGeometry width="50" height="50" relative="1" as="geometry">
            <mxPoint x="411" y="392" as="sourcePoint" />
            <mxPoint x="411" y="372" as="targetPoint" />
          </mxGeometry>
        </mxCell>
        <mxCell id="CRPaWPTZXYbFd5-qlrQ4-8" value="Request credential activity is used to request user to provide credentials" style="rounded=0;whiteSpace=wrap;html=1;" vertex="1" parent="WIyWlLk6GJQsqaUBKTNV-1">
          <mxGeometry x="412" y="429" width="120" height="60" as="geometry" />
        </mxCell>
        <mxCell id="CRPaWPTZXYbFd5-qlrQ4-9" value="" style="endArrow=none;dashed=1;html=1;rounded=0;" edge="1" parent="WIyWlLk6GJQsqaUBKTNV-1">
          <mxGeometry width="50" height="50" relative="1" as="geometry">
            <mxPoint x="412" y="493" as="sourcePoint" />
            <mxPoint x="532" y="493" as="targetPoint" />
            <Array as="points">
              <mxPoint x="482" y="493" />
              <mxPoint x="532" y="493" />
            </Array>
          </mxGeometry>
        </mxCell>
        <mxCell id="CRPaWPTZXYbFd5-qlrQ4-10" value="" style="endArrow=none;dashed=1;html=1;rounded=0;" edge="1" parent="WIyWlLk6GJQsqaUBKTNV-1">
          <mxGeometry width="50" height="50" relative="1" as="geometry">
            <mxPoint x="422" y="510" as="sourcePoint" />
            <mxPoint x="532" y="510" as="targetPoint" />
            <Array as="points">
              <mxPoint x="412" y="510" />
              <mxPoint x="432" y="510" />
              <mxPoint x="492" y="510" />
              <mxPoint x="532" y="510" />
            </Array>
          </mxGeometry>
        </mxCell>
        <mxCell id="CRPaWPTZXYbFd5-qlrQ4-11" value="" style="endArrow=none;dashed=1;html=1;dashPattern=1 3;strokeWidth=2;rounded=0;" edge="1" parent="WIyWlLk6GJQsqaUBKTNV-1">
          <mxGeometry width="50" height="50" relative="1" as="geometry">
            <mxPoint x="532" y="511" as="sourcePoint" />
            <mxPoint x="532" y="491" as="targetPoint" />
          </mxGeometry>
        </mxCell>
        <mxCell id="CRPaWPTZXYbFd5-qlrQ4-12" value="" style="endArrow=none;dashed=1;html=1;dashPattern=1 3;strokeWidth=2;rounded=0;" edge="1" parent="WIyWlLk6GJQsqaUBKTNV-1">
          <mxGeometry width="50" height="50" relative="1" as="geometry">
            <mxPoint x="412" y="511" as="sourcePoint" />
            <mxPoint x="412" y="491" as="targetPoint" />
          </mxGeometry>
        </mxCell>
        <mxCell id="CRPaWPTZXYbFd5-qlrQ4-13" value="Log message the &quot;credentials were not added successfully&quot;" style="rounded=0;whiteSpace=wrap;html=1;" vertex="1" parent="WIyWlLk6GJQsqaUBKTNV-1">
          <mxGeometry x="411" y="697" width="120" height="60" as="geometry" />
        </mxCell>
        <mxCell id="CRPaWPTZXYbFd5-qlrQ4-14" value="" style="endArrow=none;dashed=1;html=1;rounded=0;" edge="1" parent="WIyWlLk6GJQsqaUBKTNV-1">
          <mxGeometry width="50" height="50" relative="1" as="geometry">
            <mxPoint x="411" y="772" as="sourcePoint" />
            <mxPoint x="531" y="772" as="targetPoint" />
            <Array as="points">
              <mxPoint x="481" y="772" />
              <mxPoint x="531" y="772" />
            </Array>
          </mxGeometry>
        </mxCell>
        <mxCell id="CRPaWPTZXYbFd5-qlrQ4-15" value="" style="endArrow=none;dashed=1;html=1;rounded=0;" edge="1" parent="WIyWlLk6GJQsqaUBKTNV-1">
          <mxGeometry width="50" height="50" relative="1" as="geometry">
            <mxPoint x="421" y="789" as="sourcePoint" />
            <mxPoint x="531" y="789" as="targetPoint" />
            <Array as="points">
              <mxPoint x="411" y="789" />
              <mxPoint x="431" y="789" />
              <mxPoint x="491" y="789" />
              <mxPoint x="531" y="789" />
            </Array>
          </mxGeometry>
        </mxCell>
        <mxCell id="CRPaWPTZXYbFd5-qlrQ4-16" value="" style="endArrow=none;dashed=1;html=1;dashPattern=1 3;strokeWidth=2;rounded=0;" edge="1" parent="WIyWlLk6GJQsqaUBKTNV-1">
          <mxGeometry width="50" height="50" relative="1" as="geometry">
            <mxPoint x="531" y="790" as="sourcePoint" />
            <mxPoint x="531" y="770" as="targetPoint" />
          </mxGeometry>
        </mxCell>
        <mxCell id="CRPaWPTZXYbFd5-qlrQ4-17" value="" style="endArrow=none;dashed=1;html=1;dashPattern=1 3;strokeWidth=2;rounded=0;" edge="1" parent="WIyWlLk6GJQsqaUBKTNV-1">
          <mxGeometry width="50" height="50" relative="1" as="geometry">
            <mxPoint x="411" y="790" as="sourcePoint" />
            <mxPoint x="411" y="770" as="targetPoint" />
          </mxGeometry>
        </mxCell>
        <mxCell id="CRPaWPTZXYbFd5-qlrQ4-18" value="Internal App" style="text;whiteSpace=wrap;html=1;" vertex="1" parent="WIyWlLk6GJQsqaUBKTNV-1">
          <mxGeometry x="449" y="370" width="80" height="40" as="geometry" />
        </mxCell>
        <mxCell id="CRPaWPTZXYbFd5-qlrQ4-19" value="Internal App" style="text;whiteSpace=wrap;html=1;" vertex="1" parent="WIyWlLk6GJQsqaUBKTNV-1">
          <mxGeometry x="448" y="489" width="80" height="40" as="geometry" />
        </mxCell>
        <mxCell id="CRPaWPTZXYbFd5-qlrQ4-20" value="Internal App" style="text;whiteSpace=wrap;html=1;" vertex="1" parent="WIyWlLk6GJQsqaUBKTNV-1">
          <mxGeometry x="450" y="768" width="80" height="40" as="geometry" />
        </mxCell>
        <mxCell id="CRPaWPTZXYbFd5-qlrQ4-21" value="" style="rounded=0;html=1;jettySize=auto;orthogonalLoop=1;fontSize=11;endArrow=block;endFill=0;endSize=8;strokeWidth=1;shadow=0;labelBackgroundColor=none;edgeStyle=orthogonalEdgeStyle;" edge="1" parent="WIyWlLk6GJQsqaUBKTNV-1">
          <mxGeometry relative="1" as="geometry">
            <mxPoint x="474" y="400" as="sourcePoint" />
            <mxPoint x="474" y="430" as="targetPoint" />
            <Array as="points">
              <mxPoint x="474" y="390" />
              <mxPoint x="474" y="390" />
            </Array>
          </mxGeometry>
        </mxCell>
        <mxCell id="CRPaWPTZXYbFd5-qlrQ4-22" value="" style="rounded=0;html=1;jettySize=auto;orthogonalLoop=1;fontSize=11;endArrow=block;endFill=0;endSize=8;strokeWidth=1;shadow=0;labelBackgroundColor=none;edgeStyle=orthogonalEdgeStyle;" edge="1" parent="WIyWlLk6GJQsqaUBKTNV-1">
          <mxGeometry relative="1" as="geometry">
            <mxPoint x="474" y="519" as="sourcePoint" />
            <mxPoint x="474" y="550" as="targetPoint" />
            <Array as="points">
              <mxPoint x="474" y="509" />
              <mxPoint x="474" y="509" />
            </Array>
          </mxGeometry>
        </mxCell>
        <mxCell id="CRPaWPTZXYbFd5-qlrQ4-23" value="" style="rounded=0;html=1;jettySize=auto;orthogonalLoop=1;fontSize=11;endArrow=block;endFill=0;endSize=8;strokeWidth=1;shadow=0;labelBackgroundColor=none;edgeStyle=orthogonalEdgeStyle;" edge="1" parent="WIyWlLk6GJQsqaUBKTNV-1">
          <mxGeometry relative="1" as="geometry">
            <mxPoint x="474" y="801" as="sourcePoint" />
            <mxPoint x="474" y="832" as="targetPoint" />
            <Array as="points">
              <mxPoint x="474" y="791" />
              <mxPoint x="474" y="791" />
            </Array>
          </mxGeometry>
        </mxCell>
        <mxCell id="CRPaWPTZXYbFd5-qlrQ4-29" value="Throw an exception and log &quot;the credentials were not provided&#39;&#39; if user fails to provide the credentials" style="rounded=0;whiteSpace=wrap;html=1;" vertex="1" parent="WIyWlLk6GJQsqaUBKTNV-1">
          <mxGeometry x="412" y="832" width="128" height="68" as="geometry" />
        </mxCell>
        <mxCell id="CRPaWPTZXYbFd5-qlrQ4-30" value="" style="endArrow=none;dashed=1;html=1;rounded=0;" edge="1" parent="WIyWlLk6GJQsqaUBKTNV-1">
          <mxGeometry width="50" height="50" relative="1" as="geometry">
            <mxPoint x="412" y="904" as="sourcePoint" />
            <mxPoint x="532" y="904" as="targetPoint" />
            <Array as="points">
              <mxPoint x="482" y="904" />
              <mxPoint x="532" y="904" />
            </Array>
          </mxGeometry>
        </mxCell>
        <mxCell id="CRPaWPTZXYbFd5-qlrQ4-31" value="" style="endArrow=none;dashed=1;html=1;rounded=0;" edge="1" parent="WIyWlLk6GJQsqaUBKTNV-1">
          <mxGeometry width="50" height="50" relative="1" as="geometry">
            <mxPoint x="422" y="921" as="sourcePoint" />
            <mxPoint x="532" y="921" as="targetPoint" />
            <Array as="points">
              <mxPoint x="412" y="921" />
              <mxPoint x="432" y="921" />
              <mxPoint x="492" y="921" />
              <mxPoint x="532" y="921" />
            </Array>
          </mxGeometry>
        </mxCell>
        <mxCell id="CRPaWPTZXYbFd5-qlrQ4-32" value="" style="endArrow=none;dashed=1;html=1;dashPattern=1 3;strokeWidth=2;rounded=0;" edge="1" parent="WIyWlLk6GJQsqaUBKTNV-1">
          <mxGeometry width="50" height="50" relative="1" as="geometry">
            <mxPoint x="532" y="922" as="sourcePoint" />
            <mxPoint x="532" y="902" as="targetPoint" />
          </mxGeometry>
        </mxCell>
        <mxCell id="CRPaWPTZXYbFd5-qlrQ4-33" value="" style="endArrow=none;dashed=1;html=1;dashPattern=1 3;strokeWidth=2;rounded=0;" edge="1" parent="WIyWlLk6GJQsqaUBKTNV-1">
          <mxGeometry width="50" height="50" relative="1" as="geometry">
            <mxPoint x="412" y="922" as="sourcePoint" />
            <mxPoint x="412" y="902" as="targetPoint" />
          </mxGeometry>
        </mxCell>
        <mxCell id="CRPaWPTZXYbFd5-qlrQ4-34" value="" style="rounded=0;html=1;jettySize=auto;orthogonalLoop=1;fontSize=11;endArrow=block;endFill=0;endSize=8;strokeWidth=1;shadow=0;labelBackgroundColor=none;edgeStyle=orthogonalEdgeStyle;" edge="1" parent="WIyWlLk6GJQsqaUBKTNV-1">
          <mxGeometry relative="1" as="geometry">
            <mxPoint x="475" y="930" as="sourcePoint" />
            <mxPoint x="475" y="961" as="targetPoint" />
            <Array as="points">
              <mxPoint x="475" y="920" />
              <mxPoint x="475" y="920" />
            </Array>
          </mxGeometry>
        </mxCell>
        <mxCell id="CRPaWPTZXYbFd5-qlrQ4-41" value="Internal App" style="text;whiteSpace=wrap;html=1;" vertex="1" parent="WIyWlLk6GJQsqaUBKTNV-1">
          <mxGeometry x="442" y="898" width="100" height="40" as="geometry" />
        </mxCell>
        <mxCell id="CRPaWPTZXYbFd5-qlrQ4-44" value="No" style="text;html=1;align=center;verticalAlign=middle;resizable=0;points=[];autosize=1;strokeColor=none;fillColor=none;" vertex="1" parent="WIyWlLk6GJQsqaUBKTNV-1">
          <mxGeometry x="310" y="318" width="40" height="30" as="geometry" />
        </mxCell>
        <mxCell id="CRPaWPTZXYbFd5-qlrQ4-55" value="&lt;font style=&quot;border-color: var(--border-color); font-size: 11px;&quot;&gt;Were the correct&lt;/font&gt;&lt;font style=&quot;border-color: var(--border-color); font-size: 11px;&quot;&gt;&amp;nbsp;credentials provided?&lt;/font&gt;" style="rhombus;whiteSpace=wrap;html=1;" vertex="1" parent="WIyWlLk6GJQsqaUBKTNV-1">
          <mxGeometry x="414" y="551" width="120" height="100" as="geometry" />
        </mxCell>
        <mxCell id="CRPaWPTZXYbFd5-qlrQ4-56" value="" style="endArrow=classic;html=1;rounded=0;exitX=0.5;exitY=1;exitDx=0;exitDy=0;" edge="1" parent="WIyWlLk6GJQsqaUBKTNV-1" source="CRPaWPTZXYbFd5-qlrQ4-55">
          <mxGeometry width="50" height="50" relative="1" as="geometry">
            <mxPoint x="618" y="670" as="sourcePoint" />
            <mxPoint x="474" y="700" as="targetPoint" />
          </mxGeometry>
        </mxCell>
        <mxCell id="CRPaWPTZXYbFd5-qlrQ4-57" value="Yes" style="edgeLabel;html=1;align=center;verticalAlign=middle;resizable=0;points=[];" vertex="1" connectable="0" parent="CRPaWPTZXYbFd5-qlrQ4-56">
          <mxGeometry x="-0.3556" relative="1" as="geometry">
            <mxPoint x="101" y="-76" as="offset" />
          </mxGeometry>
        </mxCell>
        <mxCell id="CRPaWPTZXYbFd5-qlrQ4-58" value="No" style="text;html=1;align=center;verticalAlign=middle;resizable=0;points=[];autosize=1;strokeColor=none;fillColor=none;" vertex="1" parent="WIyWlLk6GJQsqaUBKTNV-1">
          <mxGeometry x="467" y="657" width="40" height="30" as="geometry" />
        </mxCell>
        <mxCell id="CRPaWPTZXYbFd5-qlrQ4-60" value="" style="endArrow=classic;html=1;rounded=0;exitX=1;exitY=0.5;exitDx=0;exitDy=0;entryX=0;entryY=0.571;entryDx=0;entryDy=0;entryPerimeter=0;" edge="1" parent="WIyWlLk6GJQsqaUBKTNV-1" source="CRPaWPTZXYbFd5-qlrQ4-55" target="CRPaWPTZXYbFd5-qlrQ4-61">
          <mxGeometry width="50" height="50" relative="1" as="geometry">
            <mxPoint x="540" y="600" as="sourcePoint" />
            <mxPoint x="620" y="600" as="targetPoint" />
          </mxGeometry>
        </mxCell>
        <mxCell id="CRPaWPTZXYbFd5-qlrQ4-61" value="The add credentials activity is used to add the typed credentials to the credential manager" style="rounded=0;whiteSpace=wrap;html=1;" vertex="1" parent="WIyWlLk6GJQsqaUBKTNV-1">
          <mxGeometry x="610" y="560" width="123" height="70" as="geometry" />
        </mxCell>
        <mxCell id="CRPaWPTZXYbFd5-qlrQ4-62" value="" style="endArrow=none;dashed=1;html=1;rounded=0;" edge="1" parent="WIyWlLk6GJQsqaUBKTNV-1">
          <mxGeometry width="50" height="50" relative="1" as="geometry">
            <mxPoint x="613" y="634" as="sourcePoint" />
            <mxPoint x="733" y="634" as="targetPoint" />
            <Array as="points">
              <mxPoint x="683" y="634" />
              <mxPoint x="733" y="634" />
            </Array>
          </mxGeometry>
        </mxCell>
        <mxCell id="CRPaWPTZXYbFd5-qlrQ4-63" value="" style="endArrow=none;dashed=1;html=1;rounded=0;" edge="1" parent="WIyWlLk6GJQsqaUBKTNV-1">
          <mxGeometry width="50" height="50" relative="1" as="geometry">
            <mxPoint x="623" y="651" as="sourcePoint" />
            <mxPoint x="733" y="651" as="targetPoint" />
            <Array as="points">
              <mxPoint x="613" y="651" />
              <mxPoint x="633" y="651" />
              <mxPoint x="693" y="651" />
              <mxPoint x="733" y="651" />
            </Array>
          </mxGeometry>
        </mxCell>
        <mxCell id="CRPaWPTZXYbFd5-qlrQ4-64" value="" style="endArrow=none;dashed=1;html=1;dashPattern=1 3;strokeWidth=2;rounded=0;" edge="1" parent="WIyWlLk6GJQsqaUBKTNV-1">
          <mxGeometry width="50" height="50" relative="1" as="geometry">
            <mxPoint x="733" y="652" as="sourcePoint" />
            <mxPoint x="733" y="632" as="targetPoint" />
          </mxGeometry>
        </mxCell>
        <mxCell id="CRPaWPTZXYbFd5-qlrQ4-65" value="" style="endArrow=none;dashed=1;html=1;dashPattern=1 3;strokeWidth=2;rounded=0;" edge="1" parent="WIyWlLk6GJQsqaUBKTNV-1">
          <mxGeometry width="50" height="50" relative="1" as="geometry">
            <mxPoint x="613" y="652" as="sourcePoint" />
            <mxPoint x="613" y="632" as="targetPoint" />
          </mxGeometry>
        </mxCell>
        <mxCell id="CRPaWPTZXYbFd5-qlrQ4-66" value="Log message the &#39;credentials were added successfuly&quot;" style="rounded=0;whiteSpace=wrap;html=1;" vertex="1" parent="WIyWlLk6GJQsqaUBKTNV-1">
          <mxGeometry x="614" y="689" width="120" height="60" as="geometry" />
        </mxCell>
        <mxCell id="CRPaWPTZXYbFd5-qlrQ4-67" value="" style="endArrow=none;dashed=1;html=1;rounded=0;" edge="1" parent="WIyWlLk6GJQsqaUBKTNV-1">
          <mxGeometry width="50" height="50" relative="1" as="geometry">
            <mxPoint x="614" y="753" as="sourcePoint" />
            <mxPoint x="734" y="753" as="targetPoint" />
            <Array as="points">
              <mxPoint x="684" y="753" />
              <mxPoint x="734" y="753" />
            </Array>
          </mxGeometry>
        </mxCell>
        <mxCell id="CRPaWPTZXYbFd5-qlrQ4-68" value="" style="endArrow=none;dashed=1;html=1;rounded=0;" edge="1" parent="WIyWlLk6GJQsqaUBKTNV-1">
          <mxGeometry width="50" height="50" relative="1" as="geometry">
            <mxPoint x="624" y="770" as="sourcePoint" />
            <mxPoint x="734" y="770" as="targetPoint" />
            <Array as="points">
              <mxPoint x="614" y="770" />
              <mxPoint x="634" y="770" />
              <mxPoint x="694" y="770" />
              <mxPoint x="734" y="770" />
            </Array>
          </mxGeometry>
        </mxCell>
        <mxCell id="CRPaWPTZXYbFd5-qlrQ4-69" value="" style="endArrow=none;dashed=1;html=1;dashPattern=1 3;strokeWidth=2;rounded=0;" edge="1" parent="WIyWlLk6GJQsqaUBKTNV-1">
          <mxGeometry width="50" height="50" relative="1" as="geometry">
            <mxPoint x="734" y="771" as="sourcePoint" />
            <mxPoint x="734" y="751" as="targetPoint" />
          </mxGeometry>
        </mxCell>
        <mxCell id="CRPaWPTZXYbFd5-qlrQ4-70" value="" style="endArrow=none;dashed=1;html=1;dashPattern=1 3;strokeWidth=2;rounded=0;" edge="1" parent="WIyWlLk6GJQsqaUBKTNV-1">
          <mxGeometry width="50" height="50" relative="1" as="geometry">
            <mxPoint x="614" y="771" as="sourcePoint" />
            <mxPoint x="614" y="751" as="targetPoint" />
          </mxGeometry>
        </mxCell>
        <mxCell id="CRPaWPTZXYbFd5-qlrQ4-76" value="Internal App" style="text;whiteSpace=wrap;html=1;" vertex="1" parent="WIyWlLk6GJQsqaUBKTNV-1">
          <mxGeometry x="651" y="630" width="80" height="40" as="geometry" />
        </mxCell>
        <mxCell id="CRPaWPTZXYbFd5-qlrQ4-77" value="Internal App" style="text;whiteSpace=wrap;html=1;" vertex="1" parent="WIyWlLk6GJQsqaUBKTNV-1">
          <mxGeometry x="650" y="749" width="80" height="40" as="geometry" />
        </mxCell>
        <mxCell id="CRPaWPTZXYbFd5-qlrQ4-79" value="" style="rounded=0;html=1;jettySize=auto;orthogonalLoop=1;fontSize=11;endArrow=block;endFill=0;endSize=8;strokeWidth=1;shadow=0;labelBackgroundColor=none;edgeStyle=orthogonalEdgeStyle;" edge="1" parent="WIyWlLk6GJQsqaUBKTNV-1">
          <mxGeometry relative="1" as="geometry">
            <mxPoint x="676" y="660" as="sourcePoint" />
            <mxPoint x="676" y="690" as="targetPoint" />
            <Array as="points">
              <mxPoint x="676" y="650" />
              <mxPoint x="676" y="650" />
            </Array>
          </mxGeometry>
        </mxCell>
        <mxCell id="CRPaWPTZXYbFd5-qlrQ4-80" value="" style="rounded=0;html=1;jettySize=auto;orthogonalLoop=1;fontSize=11;endArrow=block;endFill=0;endSize=8;strokeWidth=1;shadow=0;labelBackgroundColor=none;edgeStyle=orthogonalEdgeStyle;" edge="1" parent="WIyWlLk6GJQsqaUBKTNV-1">
          <mxGeometry relative="1" as="geometry">
            <mxPoint x="676" y="779" as="sourcePoint" />
            <mxPoint x="220" y="520" as="targetPoint" />
            <Array as="points">
              <mxPoint x="676" y="1030" />
              <mxPoint x="370" y="1030" />
              <mxPoint x="370" y="520" />
            </Array>
          </mxGeometry>
        </mxCell>
        <mxCell id="CRPaWPTZXYbFd5-qlrQ4-87" value="End" style="rounded=1;whiteSpace=wrap;html=1;fontSize=12;glass=0;strokeWidth=1;shadow=0;arcSize=45;" vertex="1" parent="WIyWlLk6GJQsqaUBKTNV-1">
          <mxGeometry x="414" y="962" width="120" height="40" as="geometry" />
        </mxCell>
        <mxCell id="CRPaWPTZXYbFd5-qlrQ4-90" value="" style="endArrow=classic;html=1;rounded=0;exitX=0.5;exitY=1;exitDx=0;exitDy=0;" edge="1" parent="WIyWlLk6GJQsqaUBKTNV-1">
          <mxGeometry width="50" height="50" relative="1" as="geometry">
            <mxPoint x="221" y="505" as="sourcePoint" />
            <mxPoint x="221" y="535" as="targetPoint" />
          </mxGeometry>
        </mxCell>
        <mxCell id="CRPaWPTZXYbFd5-qlrQ4-92" value="" style="endArrow=classic;html=1;rounded=0;exitX=0.5;exitY=1;exitDx=0;exitDy=0;" edge="1" parent="WIyWlLk6GJQsqaUBKTNV-1">
          <mxGeometry width="50" height="50" relative="1" as="geometry">
            <mxPoint x="223" y="632" as="sourcePoint" />
            <mxPoint x="223" y="662" as="targetPoint" />
          </mxGeometry>
        </mxCell>
        <mxCell id="CRPaWPTZXYbFd5-qlrQ4-93" value="Yes" style="edgeLabel;html=1;align=center;verticalAlign=middle;resizable=0;points=[];" vertex="1" connectable="0" parent="CRPaWPTZXYbFd5-qlrQ4-92">
          <mxGeometry x="-0.3556" relative="1" as="geometry">
            <mxPoint x="10" as="offset" />
          </mxGeometry>
        </mxCell>
        <mxCell id="CRPaWPTZXYbFd5-qlrQ4-94" value="Use application /browser activity is used to display the page logged into" style="rounded=0;whiteSpace=wrap;html=1;" vertex="1" parent="WIyWlLk6GJQsqaUBKTNV-1">
          <mxGeometry x="156" y="1032" width="119" height="60" as="geometry" />
        </mxCell>
        <mxCell id="CRPaWPTZXYbFd5-qlrQ4-95" value="" style="endArrow=none;dashed=1;html=1;rounded=0;" edge="1" parent="WIyWlLk6GJQsqaUBKTNV-1">
          <mxGeometry width="50" height="50" relative="1" as="geometry">
            <mxPoint x="155" y="1096" as="sourcePoint" />
            <mxPoint x="275" y="1096" as="targetPoint" />
            <Array as="points">
              <mxPoint x="225" y="1096" />
              <mxPoint x="275" y="1096" />
            </Array>
          </mxGeometry>
        </mxCell>
        <mxCell id="CRPaWPTZXYbFd5-qlrQ4-96" value="" style="endArrow=none;dashed=1;html=1;rounded=0;" edge="1" parent="WIyWlLk6GJQsqaUBKTNV-1">
          <mxGeometry width="50" height="50" relative="1" as="geometry">
            <mxPoint x="165" y="1113" as="sourcePoint" />
            <mxPoint x="275" y="1113" as="targetPoint" />
            <Array as="points">
              <mxPoint x="155" y="1113" />
              <mxPoint x="175" y="1113" />
              <mxPoint x="235" y="1113" />
              <mxPoint x="275" y="1113" />
            </Array>
          </mxGeometry>
        </mxCell>
        <mxCell id="CRPaWPTZXYbFd5-qlrQ4-97" value="" style="endArrow=none;dashed=1;html=1;dashPattern=1 3;strokeWidth=2;rounded=0;" edge="1" parent="WIyWlLk6GJQsqaUBKTNV-1">
          <mxGeometry width="50" height="50" relative="1" as="geometry">
            <mxPoint x="275" y="1114" as="sourcePoint" />
            <mxPoint x="275" y="1094" as="targetPoint" />
          </mxGeometry>
        </mxCell>
        <mxCell id="CRPaWPTZXYbFd5-qlrQ4-98" value="" style="endArrow=none;dashed=1;html=1;dashPattern=1 3;strokeWidth=2;rounded=0;" edge="1" parent="WIyWlLk6GJQsqaUBKTNV-1">
          <mxGeometry width="50" height="50" relative="1" as="geometry">
            <mxPoint x="155" y="1114" as="sourcePoint" />
            <mxPoint x="155" y="1094" as="targetPoint" />
          </mxGeometry>
        </mxCell>
        <mxCell id="CRPaWPTZXYbFd5-qlrQ4-99" value="Click activity is used to click on &quot;user option&quot; button" style="rounded=0;whiteSpace=wrap;html=1;" vertex="1" parent="WIyWlLk6GJQsqaUBKTNV-1">
          <mxGeometry x="156" y="1144" width="129" height="78" as="geometry" />
        </mxCell>
        <mxCell id="CRPaWPTZXYbFd5-qlrQ4-100" value="" style="endArrow=none;dashed=1;html=1;rounded=0;" edge="1" parent="WIyWlLk6GJQsqaUBKTNV-1">
          <mxGeometry width="50" height="50" relative="1" as="geometry">
            <mxPoint x="156" y="1223" as="sourcePoint" />
            <mxPoint x="276" y="1223" as="targetPoint" />
            <Array as="points">
              <mxPoint x="226" y="1223" />
              <mxPoint x="276" y="1223" />
            </Array>
          </mxGeometry>
        </mxCell>
        <mxCell id="CRPaWPTZXYbFd5-qlrQ4-101" value="" style="endArrow=none;dashed=1;html=1;rounded=0;" edge="1" parent="WIyWlLk6GJQsqaUBKTNV-1">
          <mxGeometry width="50" height="50" relative="1" as="geometry">
            <mxPoint x="166" y="1240" as="sourcePoint" />
            <mxPoint x="276" y="1240" as="targetPoint" />
            <Array as="points">
              <mxPoint x="156" y="1240" />
              <mxPoint x="176" y="1240" />
              <mxPoint x="236" y="1240" />
              <mxPoint x="276" y="1240" />
            </Array>
          </mxGeometry>
        </mxCell>
        <mxCell id="CRPaWPTZXYbFd5-qlrQ4-102" value="" style="endArrow=none;dashed=1;html=1;dashPattern=1 3;strokeWidth=2;rounded=0;" edge="1" parent="WIyWlLk6GJQsqaUBKTNV-1">
          <mxGeometry width="50" height="50" relative="1" as="geometry">
            <mxPoint x="276" y="1241" as="sourcePoint" />
            <mxPoint x="276" y="1221" as="targetPoint" />
          </mxGeometry>
        </mxCell>
        <mxCell id="CRPaWPTZXYbFd5-qlrQ4-103" value="" style="endArrow=none;dashed=1;html=1;dashPattern=1 3;strokeWidth=2;rounded=0;" edge="1" parent="WIyWlLk6GJQsqaUBKTNV-1">
          <mxGeometry width="50" height="50" relative="1" as="geometry">
            <mxPoint x="156" y="1241" as="sourcePoint" />
            <mxPoint x="156" y="1221" as="targetPoint" />
          </mxGeometry>
        </mxCell>
        <mxCell id="CRPaWPTZXYbFd5-qlrQ4-104" value="Click activity is used to click on &quot;user option&quot; button" style="rounded=0;whiteSpace=wrap;html=1;" vertex="1" parent="WIyWlLk6GJQsqaUBKTNV-1">
          <mxGeometry x="154" y="1272" width="120" height="60" as="geometry" />
        </mxCell>
        <mxCell id="CRPaWPTZXYbFd5-qlrQ4-105" value="" style="endArrow=none;dashed=1;html=1;rounded=0;" edge="1" parent="WIyWlLk6GJQsqaUBKTNV-1">
          <mxGeometry width="50" height="50" relative="1" as="geometry">
            <mxPoint x="155" y="1336" as="sourcePoint" />
            <mxPoint x="275" y="1336" as="targetPoint" />
            <Array as="points">
              <mxPoint x="225" y="1336" />
              <mxPoint x="275" y="1336" />
            </Array>
          </mxGeometry>
        </mxCell>
        <mxCell id="CRPaWPTZXYbFd5-qlrQ4-106" value="" style="endArrow=none;dashed=1;html=1;rounded=0;" edge="1" parent="WIyWlLk6GJQsqaUBKTNV-1">
          <mxGeometry width="50" height="50" relative="1" as="geometry">
            <mxPoint x="165" y="1353" as="sourcePoint" />
            <mxPoint x="275" y="1353" as="targetPoint" />
            <Array as="points">
              <mxPoint x="155" y="1353" />
              <mxPoint x="175" y="1353" />
              <mxPoint x="235" y="1353" />
              <mxPoint x="275" y="1353" />
            </Array>
          </mxGeometry>
        </mxCell>
        <mxCell id="CRPaWPTZXYbFd5-qlrQ4-107" value="" style="endArrow=none;dashed=1;html=1;dashPattern=1 3;strokeWidth=2;rounded=0;" edge="1" parent="WIyWlLk6GJQsqaUBKTNV-1">
          <mxGeometry width="50" height="50" relative="1" as="geometry">
            <mxPoint x="275" y="1354" as="sourcePoint" />
            <mxPoint x="275" y="1334" as="targetPoint" />
          </mxGeometry>
        </mxCell>
        <mxCell id="CRPaWPTZXYbFd5-qlrQ4-108" value="" style="endArrow=none;dashed=1;html=1;dashPattern=1 3;strokeWidth=2;rounded=0;" edge="1" parent="WIyWlLk6GJQsqaUBKTNV-1">
          <mxGeometry width="50" height="50" relative="1" as="geometry">
            <mxPoint x="155" y="1354" as="sourcePoint" />
            <mxPoint x="155" y="1334" as="targetPoint" />
          </mxGeometry>
        </mxCell>
        <mxCell id="CRPaWPTZXYbFd5-qlrQ4-109" value="Internal App" style="text;whiteSpace=wrap;html=1;" vertex="1" parent="WIyWlLk6GJQsqaUBKTNV-1">
          <mxGeometry x="193" y="1092" width="80" height="40" as="geometry" />
        </mxCell>
        <mxCell id="CRPaWPTZXYbFd5-qlrQ4-110" value="Internal App" style="text;whiteSpace=wrap;html=1;" vertex="1" parent="WIyWlLk6GJQsqaUBKTNV-1">
          <mxGeometry x="192" y="1218" width="80" height="40" as="geometry" />
        </mxCell>
        <mxCell id="CRPaWPTZXYbFd5-qlrQ4-111" value="Internal App" style="text;whiteSpace=wrap;html=1;" vertex="1" parent="WIyWlLk6GJQsqaUBKTNV-1">
          <mxGeometry x="194" y="1332" width="80" height="40" as="geometry" />
        </mxCell>
        <mxCell id="CRPaWPTZXYbFd5-qlrQ4-112" value="" style="rounded=0;html=1;jettySize=auto;orthogonalLoop=1;fontSize=11;endArrow=block;endFill=0;endSize=8;strokeWidth=1;shadow=0;labelBackgroundColor=none;edgeStyle=orthogonalEdgeStyle;" edge="1" parent="WIyWlLk6GJQsqaUBKTNV-1">
          <mxGeometry relative="1" as="geometry">
            <mxPoint x="217" y="1365" as="sourcePoint" />
            <mxPoint x="217" y="1396" as="targetPoint" />
            <Array as="points">
              <mxPoint x="217" y="1355" />
              <mxPoint x="217" y="1355" />
            </Array>
          </mxGeometry>
        </mxCell>
        <mxCell id="CRPaWPTZXYbFd5-qlrQ4-113" value="Click activity is used to click on &quot;download&quot; button under legacy system" style="rounded=0;whiteSpace=wrap;html=1;" vertex="1" parent="WIyWlLk6GJQsqaUBKTNV-1">
          <mxGeometry x="154" y="1518" width="120" height="60" as="geometry" />
        </mxCell>
        <mxCell id="CRPaWPTZXYbFd5-qlrQ4-114" value="" style="endArrow=none;dashed=1;html=1;rounded=0;" edge="1" parent="WIyWlLk6GJQsqaUBKTNV-1">
          <mxGeometry width="50" height="50" relative="1" as="geometry">
            <mxPoint x="154" y="1582" as="sourcePoint" />
            <mxPoint x="274" y="1582" as="targetPoint" />
            <Array as="points">
              <mxPoint x="224" y="1582" />
              <mxPoint x="274" y="1582" />
            </Array>
          </mxGeometry>
        </mxCell>
        <mxCell id="CRPaWPTZXYbFd5-qlrQ4-115" value="" style="endArrow=none;dashed=1;html=1;rounded=0;" edge="1" parent="WIyWlLk6GJQsqaUBKTNV-1">
          <mxGeometry width="50" height="50" relative="1" as="geometry">
            <mxPoint x="164" y="1599" as="sourcePoint" />
            <mxPoint x="274" y="1599" as="targetPoint" />
            <Array as="points">
              <mxPoint x="154" y="1599" />
              <mxPoint x="174" y="1599" />
              <mxPoint x="234" y="1599" />
              <mxPoint x="274" y="1599" />
            </Array>
          </mxGeometry>
        </mxCell>
        <mxCell id="CRPaWPTZXYbFd5-qlrQ4-116" value="" style="endArrow=none;dashed=1;html=1;dashPattern=1 3;strokeWidth=2;rounded=0;" edge="1" parent="WIyWlLk6GJQsqaUBKTNV-1">
          <mxGeometry width="50" height="50" relative="1" as="geometry">
            <mxPoint x="274" y="1600" as="sourcePoint" />
            <mxPoint x="274" y="1580" as="targetPoint" />
          </mxGeometry>
        </mxCell>
        <mxCell id="CRPaWPTZXYbFd5-qlrQ4-117" value="" style="endArrow=none;dashed=1;html=1;dashPattern=1 3;strokeWidth=2;rounded=0;" edge="1" parent="WIyWlLk6GJQsqaUBKTNV-1">
          <mxGeometry width="50" height="50" relative="1" as="geometry">
            <mxPoint x="154" y="1600" as="sourcePoint" />
            <mxPoint x="154" y="1580" as="targetPoint" />
          </mxGeometry>
        </mxCell>
        <mxCell id="CRPaWPTZXYbFd5-qlrQ4-118" value="Click activity is used to click on &quot;Download client and support&quot; button" style="rounded=0;whiteSpace=wrap;html=1;" vertex="1" parent="WIyWlLk6GJQsqaUBKTNV-1">
          <mxGeometry x="155" y="1397" width="120" height="60" as="geometry" />
        </mxCell>
        <mxCell id="CRPaWPTZXYbFd5-qlrQ4-119" value="" style="endArrow=none;dashed=1;html=1;rounded=0;" edge="1" parent="WIyWlLk6GJQsqaUBKTNV-1">
          <mxGeometry width="50" height="50" relative="1" as="geometry">
            <mxPoint x="155" y="1460" as="sourcePoint" />
            <mxPoint x="275" y="1460" as="targetPoint" />
            <Array as="points">
              <mxPoint x="225" y="1460" />
              <mxPoint x="275" y="1460" />
            </Array>
          </mxGeometry>
        </mxCell>
        <mxCell id="CRPaWPTZXYbFd5-qlrQ4-120" value="" style="endArrow=none;dashed=1;html=1;rounded=0;" edge="1" parent="WIyWlLk6GJQsqaUBKTNV-1">
          <mxGeometry width="50" height="50" relative="1" as="geometry">
            <mxPoint x="165" y="1477" as="sourcePoint" />
            <mxPoint x="275" y="1477" as="targetPoint" />
            <Array as="points">
              <mxPoint x="155" y="1477" />
              <mxPoint x="175" y="1477" />
              <mxPoint x="235" y="1477" />
              <mxPoint x="275" y="1477" />
            </Array>
          </mxGeometry>
        </mxCell>
        <mxCell id="CRPaWPTZXYbFd5-qlrQ4-121" value="" style="endArrow=none;dashed=1;html=1;dashPattern=1 3;strokeWidth=2;rounded=0;" edge="1" parent="WIyWlLk6GJQsqaUBKTNV-1">
          <mxGeometry width="50" height="50" relative="1" as="geometry">
            <mxPoint x="275" y="1478" as="sourcePoint" />
            <mxPoint x="275" y="1458" as="targetPoint" />
          </mxGeometry>
        </mxCell>
        <mxCell id="CRPaWPTZXYbFd5-qlrQ4-122" value="" style="endArrow=none;dashed=1;html=1;dashPattern=1 3;strokeWidth=2;rounded=0;" edge="1" parent="WIyWlLk6GJQsqaUBKTNV-1">
          <mxGeometry width="50" height="50" relative="1" as="geometry">
            <mxPoint x="155" y="1478" as="sourcePoint" />
            <mxPoint x="155" y="1458" as="targetPoint" />
          </mxGeometry>
        </mxCell>
        <mxCell id="CRPaWPTZXYbFd5-qlrQ4-123" value="" style="rounded=0;html=1;jettySize=auto;orthogonalLoop=1;fontSize=11;endArrow=block;endFill=0;endSize=8;strokeWidth=1;shadow=0;labelBackgroundColor=none;edgeStyle=orthogonalEdgeStyle;" edge="1" parent="WIyWlLk6GJQsqaUBKTNV-1">
          <mxGeometry relative="1" as="geometry">
            <mxPoint x="218" y="1486" as="sourcePoint" />
            <mxPoint x="218" y="1517" as="targetPoint" />
            <Array as="points">
              <mxPoint x="218" y="1476" />
              <mxPoint x="218" y="1476" />
            </Array>
          </mxGeometry>
        </mxCell>
        <mxCell id="CRPaWPTZXYbFd5-qlrQ4-124" value="Click activity is used to click on &quot;log out&quot; button" style="rounded=0;whiteSpace=wrap;html=1;" vertex="1" parent="WIyWlLk6GJQsqaUBKTNV-1">
          <mxGeometry x="155" y="1640" width="120" height="60" as="geometry" />
        </mxCell>
        <mxCell id="CRPaWPTZXYbFd5-qlrQ4-125" value="" style="endArrow=none;dashed=1;html=1;rounded=0;" edge="1" parent="WIyWlLk6GJQsqaUBKTNV-1">
          <mxGeometry width="50" height="50" relative="1" as="geometry">
            <mxPoint x="155" y="1704" as="sourcePoint" />
            <mxPoint x="275" y="1704" as="targetPoint" />
            <Array as="points">
              <mxPoint x="225" y="1704" />
              <mxPoint x="275" y="1704" />
            </Array>
          </mxGeometry>
        </mxCell>
        <mxCell id="CRPaWPTZXYbFd5-qlrQ4-126" value="" style="endArrow=none;dashed=1;html=1;rounded=0;" edge="1" parent="WIyWlLk6GJQsqaUBKTNV-1">
          <mxGeometry width="50" height="50" relative="1" as="geometry">
            <mxPoint x="165" y="1721" as="sourcePoint" />
            <mxPoint x="275" y="1721" as="targetPoint" />
            <Array as="points">
              <mxPoint x="155" y="1721" />
              <mxPoint x="175" y="1721" />
              <mxPoint x="235" y="1721" />
              <mxPoint x="275" y="1721" />
            </Array>
          </mxGeometry>
        </mxCell>
        <mxCell id="CRPaWPTZXYbFd5-qlrQ4-127" value="" style="endArrow=none;dashed=1;html=1;dashPattern=1 3;strokeWidth=2;rounded=0;" edge="1" parent="WIyWlLk6GJQsqaUBKTNV-1">
          <mxGeometry width="50" height="50" relative="1" as="geometry">
            <mxPoint x="275" y="1722" as="sourcePoint" />
            <mxPoint x="275" y="1702" as="targetPoint" />
          </mxGeometry>
        </mxCell>
        <mxCell id="CRPaWPTZXYbFd5-qlrQ4-128" value="" style="endArrow=none;dashed=1;html=1;dashPattern=1 3;strokeWidth=2;rounded=0;" edge="1" parent="WIyWlLk6GJQsqaUBKTNV-1">
          <mxGeometry width="50" height="50" relative="1" as="geometry">
            <mxPoint x="155" y="1722" as="sourcePoint" />
            <mxPoint x="155" y="1702" as="targetPoint" />
          </mxGeometry>
        </mxCell>
        <mxCell id="CRPaWPTZXYbFd5-qlrQ4-129" value="" style="rounded=0;html=1;jettySize=auto;orthogonalLoop=1;fontSize=11;endArrow=block;endFill=0;endSize=8;strokeWidth=1;shadow=0;labelBackgroundColor=none;edgeStyle=orthogonalEdgeStyle;" edge="1" parent="WIyWlLk6GJQsqaUBKTNV-1">
          <mxGeometry relative="1" as="geometry">
            <mxPoint x="220" y="1608" as="sourcePoint" />
            <mxPoint x="220" y="1639" as="targetPoint" />
            <Array as="points">
              <mxPoint x="220" y="1598" />
              <mxPoint x="220" y="1598" />
            </Array>
          </mxGeometry>
        </mxCell>
        <mxCell id="CRPaWPTZXYbFd5-qlrQ4-130" value="Internal App" style="text;whiteSpace=wrap;html=1;" vertex="1" parent="WIyWlLk6GJQsqaUBKTNV-1">
          <mxGeometry x="185" y="1455" width="100" height="40" as="geometry" />
        </mxCell>
        <mxCell id="CRPaWPTZXYbFd5-qlrQ4-131" value="Internal App" style="text;whiteSpace=wrap;html=1;" vertex="1" parent="WIyWlLk6GJQsqaUBKTNV-1">
          <mxGeometry x="185" y="1579" width="100" height="40" as="geometry" />
        </mxCell>
        <mxCell id="CRPaWPTZXYbFd5-qlrQ4-132" value="" style="endArrow=classic;html=1;rounded=0;exitX=0.5;exitY=1;exitDx=0;exitDy=0;" edge="1" parent="WIyWlLk6GJQsqaUBKTNV-1">
          <mxGeometry width="50" height="50" relative="1" as="geometry">
            <mxPoint x="216" y="1114" as="sourcePoint" />
            <mxPoint x="216" y="1144" as="targetPoint" />
          </mxGeometry>
        </mxCell>
        <mxCell id="CRPaWPTZXYbFd5-qlrQ4-133" value="" style="endArrow=classic;html=1;rounded=0;exitX=0.5;exitY=1;exitDx=0;exitDy=0;" edge="1" parent="WIyWlLk6GJQsqaUBKTNV-1">
          <mxGeometry width="50" height="50" relative="1" as="geometry">
            <mxPoint x="218" y="1241" as="sourcePoint" />
            <mxPoint x="218" y="1271" as="targetPoint" />
          </mxGeometry>
        </mxCell>
        <mxCell id="CRPaWPTZXYbFd5-qlrQ4-134" value="Yes" style="edgeLabel;html=1;align=center;verticalAlign=middle;resizable=0;points=[];" vertex="1" connectable="0" parent="CRPaWPTZXYbFd5-qlrQ4-133">
          <mxGeometry x="-0.3556" relative="1" as="geometry">
            <mxPoint x="10" as="offset" />
          </mxGeometry>
        </mxCell>
        <mxCell id="CRPaWPTZXYbFd5-qlrQ4-135" value="Close tab activity is used to close the browser" style="rounded=0;whiteSpace=wrap;html=1;" vertex="1" parent="WIyWlLk6GJQsqaUBKTNV-1">
          <mxGeometry x="158" y="1762" width="120" height="60" as="geometry" />
        </mxCell>
        <mxCell id="CRPaWPTZXYbFd5-qlrQ4-136" value="" style="endArrow=none;dashed=1;html=1;rounded=0;" edge="1" parent="WIyWlLk6GJQsqaUBKTNV-1">
          <mxGeometry width="50" height="50" relative="1" as="geometry">
            <mxPoint x="159" y="1826" as="sourcePoint" />
            <mxPoint x="279" y="1826" as="targetPoint" />
            <Array as="points">
              <mxPoint x="229" y="1826" />
              <mxPoint x="279" y="1826" />
            </Array>
          </mxGeometry>
        </mxCell>
        <mxCell id="CRPaWPTZXYbFd5-qlrQ4-137" value="" style="endArrow=none;dashed=1;html=1;rounded=0;" edge="1" parent="WIyWlLk6GJQsqaUBKTNV-1">
          <mxGeometry width="50" height="50" relative="1" as="geometry">
            <mxPoint x="169" y="1843" as="sourcePoint" />
            <mxPoint x="279" y="1843" as="targetPoint" />
            <Array as="points">
              <mxPoint x="159" y="1843" />
              <mxPoint x="179" y="1843" />
              <mxPoint x="239" y="1843" />
              <mxPoint x="279" y="1843" />
            </Array>
          </mxGeometry>
        </mxCell>
        <mxCell id="CRPaWPTZXYbFd5-qlrQ4-138" value="" style="endArrow=none;dashed=1;html=1;dashPattern=1 3;strokeWidth=2;rounded=0;" edge="1" parent="WIyWlLk6GJQsqaUBKTNV-1">
          <mxGeometry width="50" height="50" relative="1" as="geometry">
            <mxPoint x="279" y="1844" as="sourcePoint" />
            <mxPoint x="279" y="1824" as="targetPoint" />
          </mxGeometry>
        </mxCell>
        <mxCell id="CRPaWPTZXYbFd5-qlrQ4-139" value="" style="endArrow=none;dashed=1;html=1;dashPattern=1 3;strokeWidth=2;rounded=0;" edge="1" parent="WIyWlLk6GJQsqaUBKTNV-1">
          <mxGeometry width="50" height="50" relative="1" as="geometry">
            <mxPoint x="159" y="1844" as="sourcePoint" />
            <mxPoint x="159" y="1824" as="targetPoint" />
          </mxGeometry>
        </mxCell>
        <mxCell id="CRPaWPTZXYbFd5-qlrQ4-141" value="&lt;span style=&quot;color: rgb(0, 0, 0); font-family: Helvetica; font-size: 12px; font-style: normal; font-variant-ligatures: normal; font-variant-caps: normal; font-weight: 400; letter-spacing: normal; orphans: 2; text-align: left; text-indent: 0px; text-transform: none; widows: 2; word-spacing: 0px; -webkit-text-stroke-width: 0px; background-color: rgb(251, 251, 251); text-decoration-thickness: initial; text-decoration-style: initial; text-decoration-color: initial; float: none; display: inline !important;&quot;&gt;Internal App&lt;/span&gt;" style="text;whiteSpace=wrap;html=1;" vertex="1" parent="WIyWlLk6GJQsqaUBKTNV-1">
          <mxGeometry x="186" y="1698" width="100" height="40" as="geometry" />
        </mxCell>
        <mxCell id="CRPaWPTZXYbFd5-qlrQ4-142" value="Internal App" style="text;whiteSpace=wrap;html=1;" vertex="1" parent="WIyWlLk6GJQsqaUBKTNV-1">
          <mxGeometry x="182" y="1822" width="100" height="40" as="geometry" />
        </mxCell>
        <mxCell id="CRPaWPTZXYbFd5-qlrQ4-143" value="" style="rounded=0;html=1;jettySize=auto;orthogonalLoop=1;fontSize=11;endArrow=block;endFill=0;endSize=8;strokeWidth=1;shadow=0;labelBackgroundColor=none;edgeStyle=orthogonalEdgeStyle;" edge="1" parent="WIyWlLk6GJQsqaUBKTNV-1">
          <mxGeometry relative="1" as="geometry">
            <mxPoint x="220" y="1731" as="sourcePoint" />
            <mxPoint x="220" y="1762" as="targetPoint" />
            <Array as="points">
              <mxPoint x="220" y="1721" />
              <mxPoint x="220" y="1721" />
            </Array>
          </mxGeometry>
        </mxCell>
        <mxCell id="CRPaWPTZXYbFd5-qlrQ4-144" value="" style="rounded=0;html=1;jettySize=auto;orthogonalLoop=1;fontSize=11;endArrow=block;endFill=0;endSize=8;strokeWidth=1;shadow=0;labelBackgroundColor=none;edgeStyle=orthogonalEdgeStyle;" edge="1" parent="WIyWlLk6GJQsqaUBKTNV-1">
          <mxGeometry relative="1" as="geometry">
            <mxPoint x="218" y="1855" as="sourcePoint" />
            <mxPoint x="218" y="1886" as="targetPoint" />
            <Array as="points">
              <mxPoint x="218" y="1845" />
              <mxPoint x="218" y="1845" />
            </Array>
          </mxGeometry>
        </mxCell>
        <mxCell id="CRPaWPTZXYbFd5-qlrQ4-145" value="End" style="rounded=1;whiteSpace=wrap;html=1;fontSize=12;glass=0;strokeWidth=1;shadow=0;arcSize=45;" vertex="1" parent="WIyWlLk6GJQsqaUBKTNV-1">
          <mxGeometry x="159" y="1888" width="120" height="40" as="geometry" />
        </mxCell>
      </root>
    </mxGraphModel>
  </diagram>
</mxfile>
